<svg width="71" height="35" viewBox="0 0 71 35" fill="none" xmlns="http://www.w3.org/2000/svg">
<path d="M0.0340576 0.0909119H9.13633L18.75 23.5455H19.1591L28.7727 0.0909119H37.875V35H30.7159V12.2784H30.4261L21.392 34.8295H16.517L7.48292 12.1932H7.19315V35H0.0340576V0.0909119Z" fill="#141414"/>
<path d="M43.9559 35V0.0909119H57.7287C60.3764 0.0909119 62.6321 0.596594 64.4957 1.60796C66.3593 2.60796 67.7798 4 68.7571 5.78409C69.7457 7.55682 70.24 9.60228 70.24 11.9205C70.24 14.2386 69.74 16.2841 68.74 18.0568C67.74 19.8295 66.2912 21.2102 64.3934 22.1989C62.5071 23.1875 60.223 23.6818 57.5412 23.6818H48.7628V17.767H56.348C57.7684 17.767 58.9389 17.5227 59.8593 17.0341C60.7912 16.5341 61.4843 15.8466 61.9389 14.9716C62.4048 14.0852 62.6378 13.0682 62.6378 11.9205C62.6378 10.7614 62.4048 9.75 61.9389 8.88637C61.4843 8.01137 60.7912 7.33523 59.8593 6.85796C58.9275 6.36932 57.7457 6.125 56.3139 6.125H51.3366V35H43.9559Z" fill="#141414"/>
</svg>
